<svg width="78" height="76" viewBox="0 0 78 76" fill="none" xmlns="http://www.w3.org/2000/svg">
<path d="M22.8671 0L0.25 22.1779V53.5721L22.8671 75.75H54.8829C62.4792 68.3433 77.5 53.5721 77.5 53.5721V22.1779L54.8829 0H22.8671ZM22.899 3H54.8829L74.375 22.5V53.426L54.8829 73L22.8671 72.7537L3.5 53.3847V22.4027L22.899 3Z" fill="url(#paint0_linear_1_2295)"/>
<path fill-rule="evenodd" clip-rule="evenodd" d="M13.5 14.5H57.4167V21.5833H54.5833V17.3333H16.3333V49.9167H46.6316V52.75H13.5V14.5ZM56 32.9167C57.1272 32.9167 58.2082 32.4689 59.0052 31.6719C59.8022 30.8748 60.25 29.7938 60.25 28.6667C60.25 27.5395 59.8022 26.4585 59.0052 25.6615C58.2082 24.8644 57.1272 24.4167 56 24.4167C54.8728 24.4167 53.7918 24.8644 52.9948 25.6615C52.1978 26.4585 51.75 27.5395 51.75 28.6667C51.75 29.7938 52.1978 30.8748 52.9948 31.6719C53.7918 32.4689 54.8728 32.9167 56 32.9167ZM58.8772 35.7642C60.7175 35.7642 62.1738 36.5915 63.1272 37.8693C64.0183 39.0664 64.3952 40.5468 64.4802 41.9139C64.5634 43.3163 64.3724 44.7214 63.9178 46.0506C63.4927 47.2831 62.7745 48.5581 61.6667 49.4322V63.375C61.6677 63.9089 61.4677 64.4236 61.1065 64.8168C60.7453 65.2099 60.2493 65.4527 59.7172 65.4968C59.1851 65.5409 58.6559 65.3831 58.2349 65.0548C57.8139 64.7265 57.5319 64.2517 57.445 63.7249L55.6175 52.75H55.1953L53.1298 63.766C53.0317 64.2859 52.7432 64.7505 52.3207 65.069C51.8982 65.3875 51.3721 65.5369 50.8453 65.488C50.3185 65.4391 49.8288 65.1954 49.4722 64.8046C49.1155 64.4139 48.9174 63.9041 48.9167 63.375V43.1634C48.6334 43.595 48.3538 44.029 48.078 44.4653L47.9675 44.6396L47.9392 44.6849L47.9321 44.6977C47.7411 45.0042 47.4752 45.2571 47.1594 45.4323C46.8437 45.6076 46.4884 45.6994 46.1273 45.6992H39.0439C38.4803 45.6992 37.9398 45.4754 37.5413 45.0769C37.1428 44.6783 36.9189 44.1378 36.9189 43.5742C36.9189 43.0107 37.1428 42.4702 37.5413 42.0716C37.9398 41.6731 38.4803 41.4493 39.0439 41.4493H44.9613C45.3056 40.9166 45.7589 40.2253 46.2349 39.5311C46.7308 38.8072 47.2776 38.0408 47.7649 37.4401C48.0015 37.1468 48.2664 36.8408 48.5327 36.5901C48.6631 36.4668 48.8444 36.3067 49.0654 36.1651C49.4554 35.9091 49.9107 35.7704 50.3772 35.7656H58.8772V35.7642Z" fill="url(#paint1_linear_1_2295)"/>
<defs>
<linearGradient id="paint0_linear_1_2295" x1="38.875" y1="0" x2="72.0209" y2="41.9325" gradientUnits="userSpaceOnUse">
<stop offset="0.0667629" stop-color="#5500FF"/>
<stop offset="0.46875" stop-color="#5500FF" stop-opacity="0.6"/>
<stop offset="0.729167" stop-color="#CD34EA" stop-opacity="0.62"/>
<stop offset="0.796524" stop-color="#CD34EA"/>
<stop offset="1" stop-color="#AD00F1"/>
</linearGradient>
<linearGradient id="paint1_linear_1_2295" x1="38.9996" y1="14.5" x2="61.415" y2="42.3042" gradientUnits="userSpaceOnUse">
<stop offset="0.0667629" stop-color="#5500FF"/>
<stop offset="0.46875" stop-color="#5500FF" stop-opacity="0.6"/>
<stop offset="0.729167" stop-color="#CD34EA" stop-opacity="0.62"/>
<stop offset="0.796524" stop-color="#CD34EA"/>
<stop offset="1" stop-color="#AD00F1"/>
</linearGradient>
</defs>
</svg>
