<svg width="78" height="76" viewBox="0 0 78 76" fill="none" xmlns="http://www.w3.org/2000/svg">
<path d="M22.8671 0L0.25 22.1779V53.5721L22.8671 75.75H54.8829C62.4792 68.3433 77.5 53.5721 77.5 53.5721V22.1779L54.8829 0H22.8671ZM22.899 3H54.8829L74.375 22.5V53.426L54.8829 73L22.8671 72.7537L3.5 53.3847V22.4027L22.899 3Z" fill="url(#paint0_linear_1_2260)"/>
<path d="M24.6225 64.5593H51.5519C54.718 64.5582 57.7553 63.3053 60.0012 61.0739L60.0391 61.0361L60.0803 60.9982C62.3157 58.7468 63.5678 55.7014 63.5625 52.5288V25.6183C65.7144 28.2753 67 31.6576 67 35.3458V52.5322C67 56.6345 65.3703 60.5688 62.4693 63.4696C59.5684 66.3703 55.6338 68 51.5312 68H34.3438C30.8047 68.005 27.3718 66.7911 24.6225 64.5627V64.5593ZM57.6087 15.5161C58.4067 16.3142 59.0396 17.2617 59.4714 18.3044C59.9031 19.3471 60.1252 20.4647 60.125 21.5932V52.5288C60.125 54.8078 59.2196 56.9936 57.6079 58.6051C55.9963 60.2166 53.8105 61.122 51.5312 61.122H20.5938C18.3145 61.122 16.1287 60.2166 14.5171 58.6051C12.9054 56.9936 12 54.8078 12 52.5288V21.5932C12 19.3141 12.9054 17.1284 14.5171 15.5169C16.1287 13.9054 18.3145 13 20.5938 13H51.5312C52.6599 12.9998 53.7775 13.2219 54.8203 13.6536C55.8631 14.0853 56.8106 14.7182 57.6087 15.5161ZM20.5938 16.4373L20.0988 16.4613C18.8229 16.5844 17.6386 17.1782 16.7768 18.127C15.915 19.0758 15.4376 20.3115 15.4375 21.5932V26.7491H25.75V16.4373H20.5938ZM42.9375 16.4373H29.1875V26.7491H42.9375V16.4373ZM56.6875 21.5932L56.6634 21.0982C56.5404 19.8225 55.9465 18.6382 54.9977 17.7765C54.0488 16.9148 52.813 16.4373 51.5312 16.4373H46.375V26.7491H56.6875V21.5932ZM29.1875 30.1864V43.9356H42.9375V30.1864H29.1875ZM56.6875 30.1864H46.375V43.9356H56.6875V30.1864ZM29.1875 47.3728V57.6847H42.9375V47.3728H29.1875ZM56.6875 47.3728H46.375V57.6847H51.5312L52.0262 57.6606C53.3021 57.5376 54.4864 56.9438 55.3482 55.995C56.21 55.0462 56.6874 53.8105 56.6875 52.5288V47.3728ZM17.1288 56.3442C18.077 57.206 19.3123 57.6839 20.5938 57.6847H25.75V47.3728H15.4375V52.5288L15.4616 53.0237C15.5853 54.2993 16.1797 55.483 17.1288 56.3442ZM15.4375 30.1864V43.9356H25.75V30.1864H15.4375Z" fill="url(#paint1_linear_1_2260)"/>
<defs>
<linearGradient id="paint0_linear_1_2260" x1="38.875" y1="0" x2="72.0209" y2="41.9325" gradientUnits="userSpaceOnUse">
<stop offset="0.0667629" stop-color="#5500FF"/>
<stop offset="0.46875" stop-color="#5500FF" stop-opacity="0.6"/>
<stop offset="0.729167" stop-color="#CD34EA" stop-opacity="0.62"/>
<stop offset="0.796524" stop-color="#CD34EA"/>
<stop offset="1" stop-color="#AD00F1"/>
</linearGradient>
<linearGradient id="paint1_linear_1_2260" x1="39.5" y1="13" x2="63.6711" y2="42.9848" gradientUnits="userSpaceOnUse">
<stop offset="0.0667629" stop-color="#5500FF"/>
<stop offset="0.46875" stop-color="#5500FF" stop-opacity="0.6"/>
<stop offset="0.729167" stop-color="#CD34EA" stop-opacity="0.62"/>
<stop offset="0.796524" stop-color="#CD34EA"/>
<stop offset="1" stop-color="#AD00F1"/>
</linearGradient>
</defs>
</svg>
