<svg width="15" height="17" viewBox="0 0 15 17" fill="none" xmlns="http://www.w3.org/2000/svg">
<path d="M14.1671 3.95735C14.1888 3.94399 14.2069 3.92485 14.2195 3.90185C14.232 3.87885 14.2386 3.85278 14.2386 3.82626C14.2386 3.79973 14.232 3.77367 14.2195 3.75067C14.2069 3.72767 14.1888 3.70853 14.1671 3.69517L8.65962 0.328132C8.30722 0.113194 7.90713 0 7.49982 0C7.09251 0 6.69242 0.113194 6.34003 0.328132L0.833657 3.69517C0.811884 3.70853 0.793821 3.72767 0.781267 3.75067C0.768713 3.77367 0.762107 3.79973 0.762107 3.82626C0.762107 3.85278 0.768713 3.87885 0.781267 3.90185C0.793821 3.92485 0.811884 3.94399 0.833657 3.95735L7.42789 8.03923C7.45007 8.05298 7.47534 8.06022 7.50108 8.06022C7.52683 8.06022 7.5521 8.05298 7.57428 8.03923L14.1671 3.95735ZM0.216349 4.98977C0.194355 4.97641 0.169397 4.96939 0.144 4.96944C0.118602 4.96948 0.0936657 4.97658 0.0717121 4.99002C0.0497584 5.00345 0.031566 5.02275 0.0189744 5.04596C0.00638269 5.06917 -0.000161711 5.09547 3.0353e-06 5.12219V11.72C0.0005474 12.038 0.0801842 12.3503 0.230993 12.6258C0.381802 12.9013 0.598528 13.1305 0.859618 13.2905L6.70673 16.9797C6.72865 16.993 6.75351 17 6.77881 17C6.80412 17 6.82898 16.993 6.8509 16.9797C6.87282 16.9664 6.89103 16.9473 6.9037 16.9242C6.91637 16.9012 6.92305 16.875 6.92308 16.8484V9.19344C6.92305 9.16683 6.91638 9.14069 6.90372 9.11765C6.89106 9.09461 6.87287 9.07547 6.85096 9.06216L0.216349 4.98977ZM8.07692 9.22001V16.8465C8.07695 16.8731 8.08363 16.8993 8.0963 16.9223C8.10897 16.9454 8.12718 16.9645 8.1491 16.9778C8.17103 16.9911 8.19589 16.9981 8.22119 16.9981C8.2465 16.9981 8.27136 16.9911 8.29327 16.9778L14.14 13.2886C14.4009 13.1288 14.6175 12.8999 14.7684 12.6248C14.9193 12.3496 14.9991 12.0377 15 11.72V5.12219C14.9999 5.0956 14.9932 5.06949 14.9805 5.04649C14.9678 5.0235 14.9496 5.00441 14.9277 4.99116C14.9058 4.9779 14.8809 4.97093 14.8556 4.97096C14.8304 4.97098 14.8055 4.97799 14.7837 4.99129L8.14904 9.0891C8.12719 9.10238 8.10903 9.12145 8.09638 9.14442C8.08372 9.16739 8.07701 9.19345 8.07692 9.22001Z" fill="#686868"/>
</svg>
