<svg width="13" height="14" viewBox="0 0 13 14" fill="none" xmlns="http://www.w3.org/2000/svg">
<path d="M8.35714 4.66667V0H0V14H3.71429V11.2H4.64286V14H13V4.66667H8.35714ZM2.32143 12.1333H1.39286V11.2H2.32143V12.1333ZM2.32143 9.8H1.39286V8.86667H2.32143V9.8ZM2.32143 7.46667H1.39286V6.53333H2.32143V7.46667ZM2.32143 5.13333H1.39286V4.2H2.32143V5.13333ZM2.32143 2.8H1.39286V1.86667H2.32143V2.8ZM6.03571 1.86667H6.96429V2.8H6.03571V1.86667ZM4.64286 9.8H3.71429V8.86667H4.64286V9.8ZM4.64286 7.46667H3.71429V6.53333H4.64286V7.46667ZM4.64286 5.13333H3.71429V4.2H4.64286V5.13333ZM4.64286 2.8H3.71429V1.86667H4.64286V2.8ZM6.96429 12.1333H6.03571V11.2H6.96429V12.1333ZM6.96429 9.8H6.03571V8.86667H6.96429V9.8ZM6.96429 7.46667H6.03571V6.53333H6.96429V7.46667ZM6.96429 5.13333H6.03571V4.2H6.96429V5.13333ZM12.0714 13.0667H8.35714V12.1333H9.28571V11.2H8.35714V9.8H9.28571V8.86667H8.35714V7.46667H9.28571V6.53333H8.35714V5.6H12.0714V13.0667Z" fill="#686868"/>
</svg>
