<svg width="15" height="17" viewBox="0 0 15 17" fill="none" xmlns="http://www.w3.org/2000/svg">
<path d="M7.5 0.00113401C6.864 -0.0115129 6.23138 0.081732 5.63935 0.275384C5.04732 0.469036 4.50784 0.759184 4.05264 1.12876C3.59745 1.49834 3.23573 1.93988 2.98876 2.42741C2.7418 2.91495 2.61457 3.43863 2.61457 3.96765C2.61457 4.49667 2.7418 5.02035 2.98876 5.50789C3.23573 5.99542 3.59745 6.43696 4.05264 6.80654C4.50784 7.17611 5.04732 7.46626 5.63935 7.65991C6.23138 7.85357 6.864 7.94681 7.5 7.93416C8.136 7.94681 8.76862 7.85357 9.36065 7.65991C9.95268 7.46626 10.4922 7.17611 10.9474 6.80654C11.4026 6.43696 11.7643 5.99542 12.0112 5.50789C12.2582 5.02035 12.3854 4.49667 12.3854 3.96765C12.3854 3.43863 12.2582 2.91495 12.0112 2.42741C11.7643 1.93988 11.4026 1.49834 10.9474 1.12876C10.4922 0.759184 9.95268 0.469036 9.36065 0.275384C8.76862 0.081732 8.136 -0.0115129 7.5 0.00113401V0.00113401ZM4.77273 10.1998C3.50692 10.1998 2.29296 10.6179 1.3979 11.3622C0.502839 12.1065 0 13.116 0 14.1686V17H15V14.1686C15 13.116 14.4972 12.1065 13.6021 11.3622C12.707 10.6179 11.4931 10.1998 10.2273 10.1998H4.77273Z" fill="#686868"/>
</svg>
