<svg width="108" height="108" viewBox="0 0 108 108" fill="none" xmlns="http://www.w3.org/2000/svg">
<path d="M54 92.88C40.5 92.88 28.566 85.968 21.6 75.6C21.762 64.8 43.2 58.86 54 58.86C64.8 58.86 86.238 64.8 86.4 75.6C82.83 80.9158 78.0076 85.2722 72.3576 88.2856C66.7076 91.2989 60.4033 92.8767 54 92.88ZM54 16.2C58.2965 16.2 62.417 17.9068 65.4551 20.9449C68.4932 23.983 70.2 28.1035 70.2 32.4C70.2 36.6965 68.4932 40.817 65.4551 43.8551C62.417 46.8932 58.2965 48.6 54 48.6C49.7035 48.6 45.583 46.8932 42.5449 43.8551C39.5068 40.817 37.8 36.6965 37.8 32.4C37.8 28.1035 39.5068 23.983 42.5449 20.9449C45.583 17.9068 49.7035 16.2 54 16.2ZM54 0C46.9086 0 39.8867 1.39675 33.3351 4.11051C26.7835 6.82426 20.8306 10.8019 15.8162 15.8162C5.68927 25.9432 0 39.6783 0 54C0 68.3217 5.68927 82.0568 15.8162 92.1838C20.8306 97.1981 26.7835 101.176 33.3351 103.89C39.8867 106.603 46.9086 108 54 108C68.3217 108 82.0568 102.311 92.1838 92.1838C102.311 82.0568 108 68.3217 108 54C108 24.138 83.7 0 54 0Z" fill="#686868"/>
</svg>
