<svg width="15" height="18" viewBox="0 0 15 18" fill="none" xmlns="http://www.w3.org/2000/svg">
<path d="M9.64286 6V0H0V18H4.28571V14.4H5.35714V18H15V6H9.64286ZM2.67857 15.6H1.60714V14.4H2.67857V15.6ZM2.67857 12.6H1.60714V11.4H2.67857V12.6ZM2.67857 9.6H1.60714V8.4H2.67857V9.6ZM2.67857 6.6H1.60714V5.4H2.67857V6.6ZM2.67857 3.6H1.60714V2.4H2.67857V3.6ZM6.96429 2.4H8.03571V3.6H6.96429V2.4ZM5.35714 12.6H4.28571V11.4H5.35714V12.6ZM5.35714 9.6H4.28571V8.4H5.35714V9.6ZM5.35714 6.6H4.28571V5.4H5.35714V6.6ZM5.35714 3.6H4.28571V2.4H5.35714V3.6ZM8.03571 15.6H6.96429V14.4H8.03571V15.6ZM8.03571 12.6H6.96429V11.4H8.03571V12.6ZM8.03571 9.6H6.96429V8.4H8.03571V9.6ZM8.03571 6.6H6.96429V5.4H8.03571V6.6ZM13.9286 16.8H9.64286V15.6H10.7143V14.4H9.64286V12.6H10.7143V11.4H9.64286V9.6H10.7143V8.4H9.64286V7.2H13.9286V16.8Z" fill="#686868"/>
</svg>
