<svg width="78" height="76" viewBox="0 0 78 76" fill="none" xmlns="http://www.w3.org/2000/svg">
<path d="M22.8671 0L0.25 22.1779V53.5721L22.8671 75.75H54.8829C62.4792 68.3433 77.5 53.5721 77.5 53.5721V22.1779L54.8829 0H22.8671ZM22.899 3H54.8829L74.375 22.5V53.426L54.8829 73L22.8671 72.7537L3.5 53.3847V22.4027L22.899 3Z" fill="url(#paint0_linear_1_2239)"/>
<path d="M10 21.1667V48.6667C10 51.0978 10.9239 53.4294 12.5684 55.1485C14.213 56.8676 16.4435 57.8333 18.7692 57.8333H32.0897C31.9784 57.075 31.9227 56.3089 31.9231 55.5417C31.9231 54.7579 31.9976 53.9925 32.1423 53.25H18.7692C17.6064 53.25 16.4911 52.7671 15.6688 51.9076C14.8466 51.048 14.3846 49.8822 14.3846 48.6667V28.0417H26.4423C26.9872 28.0413 27.5124 27.8289 27.9155 27.4458L34.5232 21.1667H51.6538C56.227 21.1667 60.2608 23.6096 62.6154 27.3129V25.75C62.6154 23.3188 61.6915 20.9873 60.0469 19.2682C58.4024 17.5491 56.1719 16.5833 53.8462 16.5833H32.6904L27.8103 12.5042C27.4222 12.1787 26.9398 12.0009 26.4423 12H18.7692C16.4435 12 14.213 12.9658 12.5684 14.6849C10.9239 16.4039 10 18.7355 10 21.1667V21.1667ZM14.3846 21.1667C14.3846 19.9511 14.8466 18.7853 15.6688 17.9258C16.4911 17.0662 17.6064 16.5833 18.7692 16.5833H25.675L29.4808 19.7642L25.5961 23.4583H14.3846V21.1667ZM60.4231 34.9167C60.4231 37.3478 59.4992 39.6794 57.8546 41.3985C56.2101 43.1176 53.9796 44.0833 51.6538 44.0833C49.3281 44.0833 47.0976 43.1176 45.4531 41.3985C43.8085 39.6794 42.8846 37.3478 42.8846 34.9167C42.8846 32.4855 43.8085 30.1539 45.4531 28.4349C47.0976 26.7158 49.3281 25.75 51.6538 25.75C53.9796 25.75 56.2101 26.7158 57.8546 28.4349C59.4992 30.1539 60.4231 32.4855 60.4231 34.9167V34.9167ZM67 55.5417C67 61.2479 62.6154 67 51.6538 67C40.6923 67 36.3077 61.2708 36.3077 55.5417C36.3077 53.7183 37.0006 51.9696 38.234 50.6803C39.4674 49.391 41.1403 48.6667 42.8846 48.6667H60.4231C62.1674 48.6667 63.8403 49.391 65.0737 50.6803C66.3071 51.9696 67 53.7183 67 55.5417V55.5417Z" fill="url(#paint1_linear_1_2239)"/>
<defs>
<linearGradient id="paint0_linear_1_2239" x1="38.875" y1="0" x2="72.0209" y2="41.9325" gradientUnits="userSpaceOnUse">
<stop offset="0.0667629" stop-color="#5500FF"/>
<stop offset="0.46875" stop-color="#5500FF" stop-opacity="0.6"/>
<stop offset="0.729167" stop-color="#CD34EA" stop-opacity="0.62"/>
<stop offset="0.796524" stop-color="#CD34EA"/>
<stop offset="1" stop-color="#AD00F1"/>
</linearGradient>
<linearGradient id="paint1_linear_1_2239" x1="38.5" y1="12" x2="62.474" y2="42.8218" gradientUnits="userSpaceOnUse">
<stop offset="0.0667629" stop-color="#5500FF"/>
<stop offset="0.46875" stop-color="#5500FF" stop-opacity="0.6"/>
<stop offset="0.729167" stop-color="#CD34EA" stop-opacity="0.62"/>
<stop offset="0.796524" stop-color="#CD34EA"/>
<stop offset="1" stop-color="#AD00F1"/>
</linearGradient>
</defs>
</svg>
