<svg width="78" height="79" viewBox="0 0 78 79" fill="none" xmlns="http://www.w3.org/2000/svg">
<path d="M22.8671 0L0.25 22.1779V53.5721L22.8671 75.75H54.8829C62.4792 68.3433 77.5 53.5721 77.5 53.5721V22.1779L54.8829 0H22.8671ZM22.899 3H54.8829L74.375 22.5V53.426L54.8829 73L22.8671 72.7537L3.5 53.3847V22.4027L22.899 3Z" fill="url(#paint0_linear_1_2245)"/>
<path d="M49.3854 40.8125C49.3854 39.3041 48.8246 37.8574 47.8264 36.7908C46.8281 35.7242 45.4742 35.125 44.0625 35.125H25.8125C24.4008 35.125 23.0469 35.7242 22.0486 36.7908C21.0504 37.8574 20.4896 39.3041 20.4896 40.8125V42.4375C20.4896 45.9443 22.056 47.8163 24.6749 49.5875C27.2603 51.336 30.8404 52.1875 34.9375 52.1875C39.7707 52.1875 43.3781 51.349 45.7962 49.5713C48.2661 47.7545 49.3854 45.8533 49.3854 42.4375V40.8125ZM25.0521 40.8125C25.0521 40.597 25.1322 40.3904 25.2748 40.238C25.4174 40.0856 25.6108 40 25.8125 40H44.0625C44.2642 40 44.4576 40.0856 44.6002 40.238C44.7428 40.3904 44.8229 40.597 44.8229 40.8125V42.4375C44.8229 43.302 44.7165 43.5068 44.5127 43.9C44.461 43.9975 44.4032 44.1113 44.3393 44.2478C43.9994 44.959 43.4661 45.5436 42.8093 45.9248C41.3098 46.8478 38.8278 47.3125 34.9375 47.3125C31.838 47.3125 29.3226 46.8575 27.6071 45.9053C26.8429 45.5117 26.1878 44.9125 25.706 44.1665C25.6234 44.0331 25.5362 43.903 25.4445 43.7765C25.192 43.419 25.0521 43.224 25.0521 42.4375V40.8125ZM42.5417 25.375C42.5417 27.5299 41.7405 29.5965 40.3145 31.1202C38.8884 32.644 36.9542 33.5 34.9375 33.5C32.9207 33.5 30.9866 32.644 29.5605 31.1202C28.1345 29.5965 27.3333 27.5299 27.3333 25.375C27.3333 23.2201 28.1345 21.1535 29.5605 19.6298C30.9866 18.106 32.9207 17.25 34.9375 17.25C36.9542 17.25 38.8884 18.106 40.3145 19.6298C41.7405 21.1535 42.5417 23.2201 42.5417 25.375ZM37.9792 25.375C37.9792 24.513 37.6587 23.6864 37.0883 23.0769C36.5179 22.4674 35.7442 22.125 34.9375 22.125C34.1308 22.125 33.3571 22.4674 32.7867 23.0769C32.2163 23.6864 31.8958 24.513 31.8958 25.375C31.8958 26.237 32.2163 27.0636 32.7867 27.6731C33.3571 28.2826 34.1308 28.625 34.9375 28.625C35.7442 28.625 36.5179 28.2826 37.0883 27.6731C37.6587 27.0636 37.9792 26.237 37.9792 25.375ZM12.125 21.3125C12.125 18.5112 13.1665 15.8245 15.0204 13.8437C16.8742 11.8628 19.3886 10.75 22.0104 10.75H47.8646C50.4864 10.75 53.0008 11.8628 54.8546 13.8437C56.7085 15.8245 57.75 18.5112 57.75 21.3125V48.9375C57.75 51.7389 56.7085 54.4255 54.8546 56.4063C53.0008 58.3872 50.4864 59.5 47.8646 59.5H22.0104C19.3886 59.5 16.8742 58.3872 15.0204 56.4063C13.1665 54.4255 12.125 51.7389 12.125 48.9375V21.3125ZM22.0104 15.625C20.5987 15.625 19.2448 16.2242 18.2465 17.2908C17.2483 18.3574 16.6875 19.8041 16.6875 21.3125V48.9375C16.6875 52.077 19.0722 54.625 22.0104 54.625H47.8646C49.2763 54.625 50.6302 54.0258 51.6285 52.9592C52.6267 51.8926 53.1875 50.4459 53.1875 48.9375V21.3125C53.1875 19.8041 52.6267 18.3574 51.6285 17.2908C50.6302 16.2242 49.2763 15.625 47.8646 15.625H22.0104ZM29.6146 67.625C27.9539 67.6264 26.3197 67.1804 24.863 66.3283C23.4063 65.4762 22.1742 64.2456 21.2804 62.75H49.3854C52.4105 62.75 55.3118 61.466 57.4509 59.1804C59.5899 56.8948 60.7917 53.7948 60.7917 50.5625V20.5325C62.1915 21.4872 63.3435 22.8037 64.141 24.3603C64.9384 25.9168 65.3557 27.663 65.3542 29.4375V50.5625C65.3542 59.9875 58.2062 67.625 49.3854 67.625H29.6146Z" fill="url(#paint1_linear_1_2245)"/>
<defs>
<linearGradient id="paint0_linear_1_2245" x1="38.875" y1="0" x2="72.0209" y2="41.9325" gradientUnits="userSpaceOnUse">
<stop offset="0.0667629" stop-color="#5500FF"/>
<stop offset="0.46875" stop-color="#5500FF" stop-opacity="0.6"/>
<stop offset="0.729167" stop-color="#CD34EA" stop-opacity="0.62"/>
<stop offset="0.796524" stop-color="#CD34EA"/>
<stop offset="1" stop-color="#AD00F1"/>
</linearGradient>
<linearGradient id="paint1_linear_1_2245" x1="38.7396" y1="10.75" x2="64.0351" y2="40.1182" gradientUnits="userSpaceOnUse">
<stop offset="0.0667629" stop-color="#5500FF"/>
<stop offset="0.46875" stop-color="#5500FF" stop-opacity="0.6"/>
<stop offset="0.729167" stop-color="#CD34EA" stop-opacity="0.62"/>
<stop offset="0.796524" stop-color="#CD34EA"/>
<stop offset="1" stop-color="#AD00F1"/>
</linearGradient>
</defs>
</svg>
