<svg width="78" height="79" viewBox="0 0 78 79" fill="none" xmlns="http://www.w3.org/2000/svg">
<path d="M22.8671 0L0.25 22.1779V53.5721L22.8671 75.75H54.8829C62.4792 68.3433 77.5 53.5721 77.5 53.5721V22.1779L54.8829 0H22.8671ZM22.899 3H54.8829L74.375 22.5V53.426L54.8829 73L22.8671 72.7537L3.5 53.3847V22.4027L22.899 3Z" fill="url(#paint0_linear_1_2283)"/>
<path d="M46 14.2402L26.6564 42.4907C25.6042 43.8859 25.0159 45.6842 25.0004 47.5525C24.9827 49.4228 25.5283 51.2398 26.54 52.679C27.5516 54.1183 28.9634 55.0862 30.5234 55.41C32.0833 55.7338 33.69 55.3925 35.0566 54.4469C36.4232 53.5014 37.4608 52.0131 37.9843 50.2477L46 14.2402Z" stroke="url(#paint1_linear_1_2283)" stroke-width="4" stroke-linecap="round" stroke-linejoin="round"/>
<path d="M24.2937 23.347L22.5387 19.6121M43.5987 14.3952C42.0752 14.1337 40.5386 14.0017 39 14C30.596 14 22.5361 18.0598 16.5936 25.2863C10.651 32.5129 7.3125 42.3141 7.3125 52.534C7.3125 48.4711 7.97084 44.448 9.24989 40.6946C10.5289 36.9412 12.4037 33.531 14.7669 30.659C17.1301 27.787 19.9356 25.5094 23.0229 23.9564C26.1102 22.4034 29.419 21.6054 32.76 21.608C34.6291 21.5994 36.4932 21.8446 38.3175 22.3392L43.5987 14.3952ZM45.1425 25.5009C49.0907 28.1936 52.3769 32.1182 54.662 36.8701C56.9472 41.622 58.1487 47.0292 58.1425 52.534H70.6875C70.6872 44.0789 68.4014 35.8584 64.1819 29.1384C59.9625 22.4183 54.0434 17.5713 47.3362 15.3438L45.1425 25.5009ZM37.18 14.0593V22.0625V14.0593ZM48.0025 27.7734L52.6662 17.7546L48.0025 27.7734ZM55.25 38.0689L65.2275 30.9154L55.25 38.0689Z" stroke="url(#paint2_linear_1_2283)" stroke-width="4" stroke-linecap="round" stroke-linejoin="round"/>
<path d="M32.7762 49.3524C34.3378 49.3524 35.6037 47.813 35.6037 45.914C35.6037 44.015 34.3378 42.4756 32.7762 42.4756C31.2146 42.4756 29.9487 44.015 29.9487 45.914C29.9487 47.813 31.2146 49.3524 32.7762 49.3524Z" stroke="url(#paint3_linear_1_2283)" stroke-linecap="round" stroke-linejoin="round"/>
<defs>
<linearGradient id="paint0_linear_1_2283" x1="38.875" y1="0" x2="72.0209" y2="41.9325" gradientUnits="userSpaceOnUse">
<stop offset="0.0667629" stop-color="#5500FF"/>
<stop offset="0.46875" stop-color="#5500FF" stop-opacity="0.6"/>
<stop offset="0.729167" stop-color="#CD34EA" stop-opacity="0.62"/>
<stop offset="0.796524" stop-color="#CD34EA"/>
<stop offset="1" stop-color="#AD00F1"/>
</linearGradient>
<linearGradient id="paint1_linear_1_2283" x1="35.5" y1="14.2402" x2="52.2596" y2="24.8146" gradientUnits="userSpaceOnUse">
<stop offset="0.0667629" stop-color="#5500FF"/>
<stop offset="0.46875" stop-color="#5500FF" stop-opacity="0.6"/>
<stop offset="0.729167" stop-color="#CD34EA" stop-opacity="0.62"/>
<stop offset="0.796524" stop-color="#CD34EA"/>
<stop offset="1" stop-color="#AD00F1"/>
</linearGradient>
<linearGradient id="paint2_linear_1_2283" x1="39" y1="14" x2="52.6973" y2="41.9456" gradientUnits="userSpaceOnUse">
<stop offset="0.0667629" stop-color="#5500FF"/>
<stop offset="0.46875" stop-color="#5500FF" stop-opacity="0.6"/>
<stop offset="0.729167" stop-color="#CD34EA" stop-opacity="0.62"/>
<stop offset="0.796524" stop-color="#CD34EA"/>
<stop offset="1" stop-color="#AD00F1"/>
</linearGradient>
<linearGradient id="paint3_linear_1_2283" x1="32.7762" y1="42.4756" x2="35.8683" y2="45.6298" gradientUnits="userSpaceOnUse">
<stop offset="0.0667629" stop-color="#5500FF"/>
<stop offset="0.46875" stop-color="#5500FF" stop-opacity="0.6"/>
<stop offset="0.729167" stop-color="#CD34EA" stop-opacity="0.62"/>
<stop offset="0.796524" stop-color="#CD34EA"/>
<stop offset="1" stop-color="#AD00F1"/>
</linearGradient>
</defs>
</svg>
