<svg width="78" height="76" viewBox="0 0 78 76" fill="none" xmlns="http://www.w3.org/2000/svg">
<path d="M22.8671 0L0.25 22.1779V53.5721L22.8671 75.75H54.8829C62.4792 68.3433 77.5 53.5721 77.5 53.5721V22.1779L54.8829 0H22.8671ZM22.899 3H54.8829L74.375 22.5V53.426L54.8829 73L22.8671 72.7537L3.5 53.3847V22.4027L22.899 3Z" fill="url(#paint0_linear_1_2232)"/>
<path d="M40.3219 62.288C34.6646 63.1976 28.8545 62.3921 23.69 59.9823C18.5256 57.5724 14.2603 53.6764 11.4802 48.8297C8.70005 43.983 7.54161 38.4233 8.164 32.9147C8.7864 27.4061 11.1591 22.2189 14.9561 18.0659C18.753 13.9129 23.7879 10.9979 29.3688 9.72142C34.9498 8.44497 40.8029 8.86973 46.1239 10.9373C51.4449 13.0049 55.9726 16.6139 59.0849 21.2683C62.1972 25.9227 63.7414 31.3941 63.5052 36.9308C62.5967 35.6225 61.3845 34.5374 59.9652 33.7619C59.7714 31.5966 59.2656 29.468 58.4625 27.4377H48.9775C49.3141 29.4765 49.5328 31.6192 49.6126 33.8324C48.2244 34.6137 47.0444 35.6968 46.1629 36.9844C46.2467 33.7878 46.012 30.5909 45.4618 27.4377H26.0684C25.5861 30.2077 25.347 33.012 25.3535 35.8208C25.3535 38.7817 25.6068 41.6052 26.0684 44.2039H44.5838C44.792 45.4078 45.2258 46.5378 45.8332 47.5572H26.8111C27.3421 49.5356 27.998 51.3329 28.7546 52.8955C30.8786 57.3151 33.4815 59.2935 35.7651 59.2935C36.8757 59.2935 38.0661 58.8241 39.2357 57.8282C39.2704 59.3472 39.6174 60.8695 40.3219 62.288ZM42.7825 18.7461C40.6482 14.3266 38.0453 12.3482 35.7651 12.3482C33.485 12.3482 30.8821 14.3266 28.7477 18.7461C27.9352 20.4649 27.287 22.2518 26.8111 24.0845H44.7261C44.248 22.2515 43.5975 20.4646 42.7825 18.7461ZM23.233 24.0845C23.8438 21.593 24.6455 19.3162 25.6034 17.3277C26.2489 15.9898 26.995 14.7357 27.8314 13.6291C22.3037 15.4806 17.6497 19.1917 14.7197 24.0845H23.2364H23.233ZM21.8829 35.8208C21.8829 32.9035 22.1155 30.0801 22.5528 27.4377H13.0678C12.0093 30.1142 11.4682 32.9556 11.4713 35.8208C11.4713 38.7717 12.037 41.6018 13.0678 44.2039H22.5528C22.1024 41.4309 21.8785 38.6278 21.8829 35.8208ZM25.6034 54.314C24.5785 52.145 23.7843 49.8812 23.233 47.5572H14.7197C17.6497 52.45 22.3037 56.1611 27.8314 58.0126C26.9674 56.8518 26.2212 55.6132 25.6034 54.314ZM56.8105 24.0845C53.8807 19.1915 49.2267 15.4803 43.6988 13.6291C44.5352 14.7357 45.2813 15.9898 45.9269 17.3277C46.8847 19.3162 47.6864 21.593 48.2972 24.0845H56.8105ZM61.7942 42.5273C61.7942 44.306 61.0629 46.0118 59.7612 47.2695C58.4595 48.5272 56.694 49.2338 54.8531 49.2338C53.0122 49.2338 51.2467 48.5272 49.945 47.2695C48.6433 46.0118 47.912 44.306 47.912 42.5273C47.912 40.7486 48.6433 39.0428 49.945 37.7851C51.2467 36.5274 53.0122 35.8208 54.8531 35.8208C56.694 35.8208 58.4595 36.5274 59.7612 37.7851C61.0629 39.0428 61.7942 40.7486 61.7942 42.5273ZM67 57.6169C67 61.7917 63.5295 66 54.8531 66C46.1767 66 42.7062 61.8084 42.7062 57.6169C42.7062 56.2829 43.2547 55.0035 44.2309 54.0602C45.2072 53.117 46.5313 52.587 47.912 52.587H61.7942C63.1749 52.587 64.499 53.117 65.4752 54.0602C66.4515 55.0035 67 56.2829 67 57.6169Z" fill="url(#paint1_linear_1_2232)"/>
<defs>
<linearGradient id="paint0_linear_1_2232" x1="38.875" y1="0" x2="72.0209" y2="41.9325" gradientUnits="userSpaceOnUse">
<stop offset="0.0667629" stop-color="#5500FF"/>
<stop offset="0.46875" stop-color="#5500FF" stop-opacity="0.6"/>
<stop offset="0.729167" stop-color="#CD34EA" stop-opacity="0.62"/>
<stop offset="0.796524" stop-color="#CD34EA"/>
<stop offset="1" stop-color="#AD00F1"/>
</linearGradient>
<linearGradient id="paint1_linear_1_2232" x1="37.5" y1="9" x2="62.3533" y2="40.9129" gradientUnits="userSpaceOnUse">
<stop offset="0.0667629" stop-color="#5500FF"/>
<stop offset="0.46875" stop-color="#5500FF" stop-opacity="0.6"/>
<stop offset="0.729167" stop-color="#CD34EA" stop-opacity="0.62"/>
<stop offset="0.796524" stop-color="#CD34EA"/>
<stop offset="1" stop-color="#AD00F1"/>
</linearGradient>
</defs>
</svg>
