<svg width="78" height="79" viewBox="0 0 78 79" fill="none" xmlns="http://www.w3.org/2000/svg">
<path d="M22.8671 0L0.25 22.1779V53.5721L22.8671 75.75H54.8829C62.4792 68.3433 77.5 53.5721 77.5 53.5721V22.1779L54.8829 0H22.8671ZM22.899 3H54.8829L74.375 22.5V53.426L54.8829 73L22.8671 72.7537L3.5 53.3847V22.4027L22.899 3Z" fill="url(#paint0_linear_1_2252)"/>
<path d="M31.8419 25.364C32.1646 25.0354 32.3459 24.5897 32.3459 24.125C32.3459 23.6603 32.1646 23.2146 31.8419 22.886C31.5191 22.5574 31.0814 22.3728 30.625 22.3728C30.1686 22.3728 29.7309 22.5574 29.4081 22.886L24.5544 27.828L23.1897 26.561C22.8506 26.2659 22.4121 26.1166 21.9669 26.1446C21.5217 26.1726 21.1046 26.3758 20.8038 26.7111C20.503 27.0465 20.3421 27.4878 20.3549 27.9418C20.3678 28.3958 20.5535 28.8269 20.8728 29.144L23.4509 31.5415C23.7776 31.8443 24.2062 32.0074 24.6479 31.997C25.0895 31.9866 25.5103 31.8034 25.8228 31.4855L31.8384 25.3605L31.8419 25.364ZM31.8419 40.386C32.0019 40.5486 32.1289 40.7417 32.2156 40.9543C32.3022 41.1669 32.3468 41.3948 32.3468 41.625C32.3468 41.8552 32.3022 42.0831 32.2156 42.2957C32.1289 42.5083 32.0019 42.7014 31.8419 42.864L25.8263 48.989C25.5131 49.3074 25.0914 49.4906 24.6489 49.5004C24.2065 49.5102 23.7773 49.3458 23.4509 49.0415L20.8728 46.644C20.5535 46.3269 20.3678 45.8958 20.3549 45.4418C20.3421 44.9878 20.503 44.5465 20.8038 44.2111C21.1046 43.8758 21.5217 43.6726 21.9669 43.6446C22.4121 43.6166 22.8506 43.7659 23.1897 44.061L24.5544 45.3315L29.4081 40.386C29.5678 40.223 29.7575 40.0937 29.9663 40.0055C30.1751 39.9173 30.3989 39.8719 30.625 39.8719C30.8511 39.8719 31.0749 39.9173 31.2837 40.0055C31.4925 40.0937 31.6822 40.223 31.8419 40.386ZM37.5 42.5C37.0442 42.5 36.607 42.6844 36.2847 43.0126C35.9623 43.3408 35.7812 43.7859 35.7812 44.25C35.7812 44.7141 35.9623 45.1592 36.2847 45.4874C36.607 45.8156 37.0442 46 37.5 46H43.2406C42.8625 44.9045 42.6562 43.725 42.6562 42.5H37.5ZM20.3125 56.5H37.6719C37.5584 57.067 37.5 57.6515 37.5 58.25C37.5 58.8345 37.5447 59.419 37.6306 60H20.3125C17.5775 60 14.9544 58.8938 13.0205 56.9246C11.0865 54.9555 10 52.2848 10 49.5V21.5C10 18.7152 11.0865 16.0445 13.0205 14.0754C14.9544 12.1062 17.5775 11 20.3125 11H47.8125C50.5475 11 53.1706 12.1062 55.1045 14.0754C57.0385 16.0445 58.125 18.7152 58.125 21.5V33.4035C57.0626 32.7772 55.8982 32.3504 54.6875 32.1435V21.5C54.6875 19.6435 53.9632 17.863 52.6739 16.5503C51.3845 15.2375 49.6359 14.5 47.8125 14.5H20.3125C18.4891 14.5 16.7405 15.2375 15.4511 16.5503C14.1618 17.863 13.4375 19.6435 13.4375 21.5V49.5C13.4375 51.3565 14.1618 53.137 15.4511 54.4497C16.7405 55.7625 18.4891 56.5 20.3125 56.5ZM35.7812 26.75C35.7812 26.2859 35.9623 25.8408 36.2847 25.5126C36.607 25.1844 37.0442 25 37.5 25H46.0938C46.5496 25 46.9868 25.1844 47.3091 25.5126C47.6314 25.8408 47.8125 26.2859 47.8125 26.75C47.8125 27.2141 47.6314 27.6592 47.3091 27.9874C46.9868 28.3156 46.5496 28.5 46.0938 28.5H37.5C37.0442 28.5 36.607 28.3156 36.2847 27.9874C35.9623 27.6592 35.7812 27.2141 35.7812 26.75ZM59.8438 42.5C59.8438 44.3565 59.1194 46.137 57.8301 47.4497C56.5408 48.7625 54.7921 49.5 52.9688 49.5C51.1454 49.5 49.3967 48.7625 48.1074 47.4497C46.8181 46.137 46.0938 44.3565 46.0938 42.5C46.0938 40.6435 46.8181 38.863 48.1074 37.5503C49.3967 36.2375 51.1454 35.5 52.9688 35.5C54.7921 35.5 56.5408 36.2375 57.8301 37.5503C59.1194 38.863 59.8438 40.6435 59.8438 42.5ZM65 58.25C65 62.6075 61.5625 67 52.9688 67C44.375 67 40.9375 62.625 40.9375 58.25C40.9375 56.8576 41.4807 55.5223 42.4477 54.5377C43.4147 53.5531 44.7262 53 46.0938 53H59.8438C61.2113 53 62.5228 53.5531 63.4898 54.5377C64.4567 55.5223 65 56.8576 65 58.25Z" fill="url(#paint1_linear_1_2252)"/>
<defs>
<linearGradient id="paint0_linear_1_2252" x1="38.875" y1="0" x2="72.0209" y2="41.9325" gradientUnits="userSpaceOnUse">
<stop offset="0.0667629" stop-color="#5500FF"/>
<stop offset="0.46875" stop-color="#5500FF" stop-opacity="0.6"/>
<stop offset="0.729167" stop-color="#CD34EA" stop-opacity="0.62"/>
<stop offset="0.796524" stop-color="#CD34EA"/>
<stop offset="1" stop-color="#AD00F1"/>
</linearGradient>
<linearGradient id="paint1_linear_1_2252" x1="37.5" y1="11" x2="62.201" y2="41.0951" gradientUnits="userSpaceOnUse">
<stop offset="0.0667629" stop-color="#5500FF"/>
<stop offset="0.46875" stop-color="#5500FF" stop-opacity="0.6"/>
<stop offset="0.729167" stop-color="#CD34EA" stop-opacity="0.62"/>
<stop offset="0.796524" stop-color="#CD34EA"/>
<stop offset="1" stop-color="#AD00F1"/>
</linearGradient>
</defs>
</svg>
