<svg width="78" height="77" viewBox="0 0 78 77" fill="none" xmlns="http://www.w3.org/2000/svg">
<path d="M22.8671 0L0.25 22.1779V53.5721L22.8671 75.75H54.8829C62.4792 68.3433 77.5 53.5721 77.5 53.5721V22.1779L54.8829 0H22.8671ZM22.899 3H54.8829L74.375 22.5V53.426L54.8829 73L22.8671 72.7537L3.5 53.3847V22.4027L22.899 3Z" fill="url(#paint0_linear_1_2274)"/>
<path d="M39.6531 43.3726C38.4486 44.5286 28.7951 54.1782 28.7951 54.1782L31.3721 56.7962C31.3721 56.7962 39.9491 48.6405 41.2371 47.4069C41.5557 47.103 42.0951 46.524 43.0923 46.524H72.3437V42.3505H42.0755C41.1907 42.3515 40.3523 42.7096 39.6531 43.3726ZM56.9832 20.6872C60.4132 20.6872 62.2849 18.2402 62.2849 15.2248C62.2847 14.1448 61.9737 13.0891 61.3912 12.1911C60.8086 11.2932 59.9808 10.5934 59.0123 10.1802C58.0437 9.76694 56.978 9.65888 55.9499 9.86964C54.9218 10.0804 53.9774 10.6005 53.2362 11.3642C52.4949 12.1279 51.9901 13.1009 51.7855 14.1602C51.581 15.2195 51.6859 16.3175 52.0869 17.3153C52.488 18.3132 53.1672 19.1662 54.0388 19.7663C54.9103 20.3665 55.935 20.6869 56.9832 20.6872ZM49.1231 30.0733H50.9009L48.296 39.7155H65.6726L63.0656 30.0733H64.8434L67.5474 39.7155H72.1406L68.4487 26.9208C67.9609 25.1539 65.7922 22.0238 62.0374 22.0238H51.9291C48.1764 22.0238 46.0097 25.1539 45.5178 26.9208L41.8311 39.7155H46.4243L49.1231 30.0733ZM34.0936 39.2097L29.4272 30.2454C29.4272 30.2454 29.1529 29.8183 28.6445 30.0722C28.1876 30.2996 28.3939 30.8298 28.3939 30.8298L29.9418 33.8738L30.905 35.7704L29.7943 35.2551C27.8267 34.3413 26.7418 33.9514 26.3067 33.7506C26.2293 33.7134 25.8477 33.4977 25.6662 33.0865C25.1506 31.8987 22.9489 26.1569 22.4549 24.8872C22.0373 23.813 21.0071 22.2873 18.8899 21.7475C16.4799 21.1334 14.0502 22.6995 13.4769 25.1911L10.1882 39.4722C9.89534 40.6239 9.39209 43.7391 9.39209 45.0524L10 58.6877C10.3897 59.7502 12 60.0002 13.4769 61.7815C15.2186 63.3752 16.7654 65.5002 16.7654 65.5002L17.1883 49.2843L20.6956 34.0322C21.105 35.0638 21.6124 36.3208 21.7784 36.6225C22.1734 37.3344 22.5632 37.8242 23.3593 38.2099C23.3593 38.2099 27.9494 40.167 29.7263 41.0022C30.2337 41.202 30.79 41.2291 31.3135 41.0796C31.837 40.9301 32.3002 40.6118 32.6354 40.1713L32.8809 39.6475L32.9654 39.8143C32.9654 39.8143 33.4883 40.7631 34.2607 40.8067C34.4824 40.0831 34.0947 39.2097 34.0947 39.2097H34.0936ZM26.9986 15.1781C26.9986 15.8955 26.8615 16.6058 26.595 17.2686C26.3286 17.9314 25.938 18.5336 25.4456 19.0409C24.9533 19.5482 24.3688 19.9506 23.7255 20.2251C23.0822 20.4996 22.3927 20.6409 21.6964 20.6409C21.0002 20.6409 20.3107 20.4996 19.6674 20.2251C19.0241 19.9506 18.4396 19.5482 17.9472 19.0409C17.4549 18.5336 17.0643 17.9314 16.7979 17.2686C16.5314 16.6058 16.3943 15.8955 16.3943 15.1781C16.4137 13.7424 16.9809 12.3724 17.9731 11.3642C18.9654 10.3561 20.3029 9.7909 21.6964 9.7909C23.09 9.7909 24.4275 10.3561 25.4198 11.3642C26.412 12.3724 26.9792 13.7424 26.9986 15.1781Z" fill="url(#paint1_linear_1_2274)"/>
<path d="M29.3871 50.6362L39.7182 40.7294L38.3755 39.2451L28.0444 49.1529L29.3871 50.6362Z" fill="url(#paint2_linear_1_2274)"/>
<defs>
<linearGradient id="paint0_linear_1_2274" x1="38.875" y1="0" x2="72.0209" y2="41.9325" gradientUnits="userSpaceOnUse">
<stop offset="0.0667629" stop-color="#5500FF"/>
<stop offset="0.46875" stop-color="#5500FF" stop-opacity="0.6"/>
<stop offset="0.729167" stop-color="#CD34EA" stop-opacity="0.62"/>
<stop offset="0.796524" stop-color="#CD34EA"/>
<stop offset="1" stop-color="#AD00F1"/>
</linearGradient>
<linearGradient id="paint1_linear_1_2274" x1="40.8679" y1="9.76465" x2="64.5723" y2="42.9777" gradientUnits="userSpaceOnUse">
<stop offset="0.0667629" stop-color="#5500FF"/>
<stop offset="0.46875" stop-color="#5500FF" stop-opacity="0.6"/>
<stop offset="0.729167" stop-color="#CD34EA" stop-opacity="0.62"/>
<stop offset="0.796524" stop-color="#CD34EA"/>
<stop offset="1" stop-color="#AD00F1"/>
</linearGradient>
<linearGradient id="paint2_linear_1_2274" x1="33.8813" y1="39.2451" x2="38.86" y2="45.5746" gradientUnits="userSpaceOnUse">
<stop offset="0.0667629" stop-color="#5500FF"/>
<stop offset="0.46875" stop-color="#5500FF" stop-opacity="0.6"/>
<stop offset="0.729167" stop-color="#CD34EA" stop-opacity="0.62"/>
<stop offset="0.796524" stop-color="#CD34EA"/>
<stop offset="1" stop-color="#AD00F1"/>
</linearGradient>
</defs>
</svg>
