<svg width="78" height="76" viewBox="0 0 78 76" fill="none" xmlns="http://www.w3.org/2000/svg">
<path d="M22.8671 0L0.25 22.1779V53.5721L22.8671 75.75H54.8829C62.4792 68.3433 77.5 53.5721 77.5 53.5721V22.1779L54.8829 0H22.8671ZM22.899 3H54.8829L74.375 22.5V53.426L54.8829 73L22.8671 72.7537L3.5 53.3847V22.4027L22.899 3Z" fill="url(#paint0_linear_1_2267)"/>
<path d="M38.5 37.5297C40.6596 37.5297 42.7308 36.7001 44.2579 35.2232C45.785 33.7464 46.6429 31.7434 46.6429 29.6549C46.6429 27.5663 45.785 25.5633 44.2579 24.0865C42.7308 22.6097 40.6596 21.78 38.5 21.78C36.3404 21.78 34.2692 22.6097 32.7421 24.0865C31.2151 25.5633 30.3571 27.5663 30.3571 29.6549C30.3571 31.7434 31.2151 33.7464 32.7421 35.2232C34.2692 36.7001 36.3404 37.5297 38.5 37.5297ZM38.5 57.2169C48.6786 57.2169 52.75 52.2754 52.75 47.3733C52.75 45.8069 52.1066 44.3047 50.9613 43.197C49.816 42.0894 48.2626 41.4672 46.6429 41.4672H30.3571C28.7374 41.4672 27.1841 42.0894 26.0387 43.197C24.8934 44.3047 24.25 45.8069 24.25 47.3733C24.25 52.2951 28.3214 57.2169 38.5 57.2169ZM39.6278 8.32973C39.2937 8.11471 38.9013 8 38.5 8C38.0987 8 37.7063 8.11471 37.3722 8.32973C29.6859 13.3409 20.9241 16.6002 11.7466 17.8623C11.2617 17.9295 10.8182 18.1636 10.4973 18.5217C10.1765 18.8797 9.99993 19.3375 10 19.8113V37.5297C10 52.8503 19.3928 64.0287 37.7671 70.868C38.2388 71.044 38.7612 71.044 39.2329 70.868C57.6072 64.0287 67 52.8464 67 37.5297V19.8113C66.9999 19.337 66.8228 18.8786 66.5011 18.5205C66.1795 18.1624 65.7349 17.9287 65.2493 17.8623C56.0732 16.5996 47.3129 13.3403 39.6278 8.32973ZM14.0714 21.4965C22.137 20.1754 29.8724 17.3942 36.8714 13.2988L38.5 12.3183L40.1286 13.2988C47.1276 17.3942 54.863 20.1754 62.9286 21.4965V37.5297C62.9286 50.8855 54.916 60.6149 38.5 66.9148C22.084 60.6149 14.0714 50.8855 14.0714 37.5297V21.4965Z" fill="url(#paint1_linear_1_2267)"/>
<defs>
<linearGradient id="paint0_linear_1_2267" x1="38.875" y1="0" x2="72.0209" y2="41.9325" gradientUnits="userSpaceOnUse">
<stop offset="0.0667629" stop-color="#5500FF"/>
<stop offset="0.46875" stop-color="#5500FF" stop-opacity="0.6"/>
<stop offset="0.729167" stop-color="#CD34EA" stop-opacity="0.62"/>
<stop offset="0.796524" stop-color="#CD34EA"/>
<stop offset="1" stop-color="#AD00F1"/>
</linearGradient>
<linearGradient id="paint1_linear_1_2267" x1="38.5" y1="8" x2="66.6447" y2="39.589" gradientUnits="userSpaceOnUse">
<stop offset="0.0667629" stop-color="#5500FF"/>
<stop offset="0.46875" stop-color="#5500FF" stop-opacity="0.6"/>
<stop offset="0.729167" stop-color="#CD34EA" stop-opacity="0.62"/>
<stop offset="0.796524" stop-color="#CD34EA"/>
<stop offset="1" stop-color="#AD00F1"/>
</linearGradient>
</defs>
</svg>
