<svg width="13" height="13" viewBox="0 0 13 13" fill="none" xmlns="http://www.w3.org/2000/svg">
<path d="M12.2781 3.02621C12.297 3.01599 12.3126 3.00135 12.3235 2.98377C12.3344 2.96618 12.3401 2.94625 12.3401 2.92596C12.3401 2.90568 12.3344 2.88575 12.3235 2.86816C12.3126 2.85057 12.297 2.83594 12.2781 2.82572L7.505 0.250924C7.19959 0.0865601 6.85285 0 6.49985 0C6.14684 0 5.8001 0.0865601 5.49469 0.250924L0.722503 2.82572C0.703633 2.83594 0.687978 2.85057 0.677098 2.86816C0.666218 2.88575 0.660492 2.90568 0.660492 2.92596C0.660492 2.94625 0.666218 2.96618 0.677098 2.98377C0.687978 3.00135 0.703633 3.01599 0.722503 3.02621L6.4375 6.14764C6.45673 6.15816 6.47863 6.1637 6.50094 6.1637C6.52325 6.1637 6.54515 6.15816 6.56438 6.14764L12.2781 3.02621ZM0.187503 3.81571C0.168441 3.80549 0.146811 3.80013 0.1248 3.80016C0.102789 3.80019 0.081177 3.80562 0.0621505 3.8159C0.043124 3.82617 0.0273572 3.84093 0.0164444 3.85868C0.00553166 3.87643 -0.00014015 3.89653 2.63059e-06 3.91697V8.96239C0.000474413 9.20553 0.0694929 9.44432 0.200194 9.655C0.330895 9.86569 0.518725 10.0409 0.745002 10.1633L5.8125 12.9845C5.83149 12.9946 5.85304 13 5.87497 13C5.8969 13 5.91845 12.9947 5.93745 12.9845C5.95644 12.9743 5.97223 12.9597 5.98321 12.942C5.99419 12.9244 5.99998 12.9044 6 12.8841V7.03028C5.99998 7.00993 5.99419 6.98994 5.98322 6.97232C5.97225 6.9547 5.95649 6.94007 5.9375 6.92989L0.187503 3.81571ZM7 7.05059V12.8826C7.00002 12.903 7.00582 12.923 7.0168 12.9406C7.02778 12.9582 7.04356 12.9729 7.06256 12.983C7.08155 12.9932 7.1031 12.9986 7.12503 12.9985C7.14697 12.9985 7.16851 12.9932 7.1875 12.983L12.2547 10.1619C12.4808 10.0397 12.6685 9.86465 12.7993 9.65423C12.93 9.44382 12.9992 9.20531 13 8.96239V3.91697C12.9999 3.89663 12.9941 3.87667 12.9831 3.85908C12.9721 3.8415 12.9563 3.8269 12.9373 3.81677C12.9183 3.80663 12.8968 3.8013 12.8749 3.80132C12.853 3.80134 12.8315 3.8067 12.8125 3.81687L7.0625 6.95049C7.04356 6.96064 7.02783 6.97523 7.01686 6.99279C7.00589 7.01036 7.00008 7.03029 7 7.05059Z" fill="#686868"/>
</svg>
